<svg width="80" height="40" viewBox="0 0 80 40" fill="none" xmlns="http://www.w3.org/2000/svg">
<path d="M16.4516 28.0109H20.1935V17.0176H16.4516V28.0109ZM21.4839 9.53692H18.9677V12.0738H21.4839V9.53692ZM7.35484 10.7729H3.74194V13.9603H7.09677C9.22581 13.9603 10.4516 15.0011 10.4516 16.9525C10.4516 18.904 9.22581 20.0099 7.09677 20.0099H3.74194V14.0253H0V28.0109H3.74194V23.1973H7.29032C11.6129 23.1973 14.129 20.8555 14.129 16.8225C14.129 13.0496 11.6774 10.7729 7.35484 10.7729ZM24 7H16.4516V14.6108H24V7ZM22.7742 13.3098H17.7419V8.23594H22.7742V13.3098ZM44.7097 10.7729H41.2903V13.9603H44.5161C46.6452 13.9603 47.871 15.0011 47.871 16.9525C47.871 18.904 46.6452 20.0099 44.5161 20.0099H41.2903V14.0253H37.5484V28.0109H41.2903V23.1973H44.7097C49.0323 23.1973 51.5484 20.8555 51.5484 16.8225C51.5484 13.0496 49.0323 10.7729 44.7097 10.7729ZM76.129 14.8059L72.9032 23.0021L69.6774 14.8059H65.8064L70.9677 28.0109L68.9677 33.0197H72.9032L80 14.8059H76.129ZM59.3548 14.7409C57.0968 14.7409 55.3548 15.2613 53.4194 16.237L54.5806 18.839C55.9355 18.0584 57.2903 17.6681 58.5161 17.6681C60.3226 17.6681 61.2258 18.4487 61.2258 19.8798V20.14H57.6129C54.3871 20.14 52.6452 21.6361 52.6452 24.108C52.6452 26.5148 54.3226 28.2061 57.1613 28.2061C58.9677 28.2061 60.2581 27.5556 61.2903 26.4498V27.8808H64.9677V19.2943C64.8387 16.4972 62.8387 14.7409 59.3548 14.7409ZM61.5484 23.5876C61.1613 24.6934 60.0645 25.6041 58.5161 25.6041C57.2258 25.6041 56.4516 24.9536 56.4516 23.9128C56.4516 22.872 57.1613 22.4167 58.5806 22.4167H61.5484V23.5876ZM29.7419 25.1488C27.9355 25.1488 26.6452 23.7177 26.6452 21.5711C26.6452 19.4895 27.9355 18.0584 29.7419 18.0584C31.0323 18.0584 32 18.5788 32.7097 19.4895L35.2258 17.6681C34.0645 15.9118 32.0645 14.871 29.5484 14.871C25.6129 14.8059 22.9032 17.538 22.9032 21.5711C22.9032 25.6041 25.6129 28.2711 29.5484 28.2711C32.2581 28.2711 34.2581 27.1653 35.3548 25.3439L32.7742 23.5876C32.129 24.6284 31.0968 25.1488 29.7419 25.1488Z" fill="#11C76F"/>
</svg>
